<svg width="640" height="160" viewBox="0 0 640 160" fill="none" xmlns="http://www.w3.org/2000/svg">
<circle cx="376" cy="16" r="16" fill="#66D49F"/>
<line x1="191.483" y1="36.0336" x2="375.483" y2="12.0336" stroke="#66D49F" stroke-width="8"/>
<line x1="463.642" y1="46.0323" x2="551.642" y2="30.0323" stroke="#66D49F" stroke-opacity="0.5" stroke-width="4"/>
<rect width="16" height="104" rx="8" transform="matrix(-1 0 0 1 592 56)" fill="#66D49F"/>
<rect width="64" height="16" rx="8" transform="matrix(-1 0 0 1 640 56)" fill="#66D49F"/>
<rect width="16" height="56" rx="8" transform="matrix(-1 0 0 1 640 56)" fill="#66D49F"/>
<path d="M640 104C640 99.5817 636.418 96 632 96H584C579.582 96 576 99.5817 576 104C576 108.418 579.582 112 584 112H632C636.418 112 640 108.418 640 104Z" fill="#66D49F"/>
<rect width="16" height="88" rx="8" transform="matrix(-1 0 0 1 560 56)" fill="#66D49F"/>
<circle cx="552" cy="32" r="16" fill="#66D49F"/>
<circle cx="552" cy="32" r="9" fill="white"/>
<rect width="16" height="88" rx="8" transform="matrix(-1 0 0 1 472 64)" fill="#66D49F"/>
<rect width="16" height="32" rx="8" transform="matrix(-1 0 0 1 528 72)" fill="#66D49F"/>
<rect width="64" height="16" rx="8" transform="matrix(-1 0 0 1 528 72)" fill="#66D49F"/>
<rect width="16" height="112" rx="8" transform="matrix(-1 0 0 1 432 32)" fill="#66D49F"/>
<rect width="105.639" height="16" rx="8" transform="matrix(-0.973047 -0.230606 -0.230606 0.973047 473.089 39.3445)" fill="#66D49F"/>
<circle cx="376" cy="16" r="9" fill="white"/>
<rect width="16" height="104" rx="8" transform="matrix(-1 0 0 1 360 56)" fill="#66D49F"/>
<rect width="16" height="32" rx="8" transform="matrix(-1 0 0 1 312 128)" fill="#66D49F"/>
<rect width="64" height="16" rx="8" transform="matrix(-1 0 0 1 360 144)" fill="#66D49F"/>
<rect width="16" height="56" rx="8" transform="matrix(-1 0 0 1 312 56)" fill="#66D49F"/>
<path d="M360 104C360 99.5817 356.418 96 352 96H304C299.582 96 296 99.5817 296 104C296 108.418 299.582 112 304 112H352C356.418 112 360 108.418 360 104Z" fill="#66D49F"/>
<rect width="16" height="80" rx="8" transform="matrix(-1 0 0 1 280 64)" fill="#66D49F"/>
<rect width="64" height="16" rx="8" transform="matrix(-1 0 0 1 280 128)" fill="#66D49F"/>
<rect width="64" height="16" rx="8" transform="matrix(-1 0 0 1 280 64)" fill="#66D49F"/>
<rect width="16" height="80" rx="8" transform="matrix(-1 0 0 1 232 64)" fill="#66D49F"/>
<rect width="16" height="32" rx="8" transform="matrix(-1 0 0 1 152 128)" fill="#66D49F"/>
<rect width="16" height="96" rx="8" transform="matrix(-1 0 0 1 200 64)" fill="#66D49F"/>
<rect width="64" height="16" rx="8" transform="matrix(-1 0 0 1 200 144)" fill="#66D49F"/>
<circle cx="192" cy="40" r="16" fill="#66D49F"/>
<circle cx="192" cy="40" r="9" fill="white"/>
<rect width="16" height="88" rx="8" transform="matrix(-1 0 0 1 104 24)" fill="#66D49F"/>
<rect width="16" height="80" rx="8" transform="matrix(-1 0 0 1 152 32)" fill="#66D49F"/>
<rect width="64" height="16" rx="8" transform="matrix(-1 0 0 1 152 32)" fill="#66D49F"/>
<rect width="16" height="136" rx="8" transform="matrix(-1 0 0 1 16 8)" fill="#66D49F"/>
<rect width="80" height="16" rx="8" transform="matrix(-1 0 0 1 80 128)" fill="#66D49F"/>
<rect width="80" height="16" rx="8" transform="matrix(-1 0 0 1 80 8)" fill="#66D49F"/>
<rect width="80" height="16" rx="8" transform="matrix(-1 0 0 1 80 64)" fill="#66D49F"/>
</svg>
