<svg width="1010" height="160" viewBox="0 0 1010 160" fill="none" xmlns="http://www.w3.org/2000/svg">
<rect x="50" y="20" width="60" height="60" fill="#66D49F"/>
<rect x="50" y="80" width="60" height="60" fill="#66D49F"/>
<rect x="280" y="20" width="60" height="60" fill="#66D49F"/>
<rect x="350" y="20" width="60" height="60" fill="#66D49F"/>
<rect x="350" y="80" width="60" height="60" fill="#66D49F"/>
<rect x="280" y="80" width="60" height="60" fill="#66D49F"/>
<rect x="150" y="20" width="60" height="60" fill="#66D49F"/>
<rect x="150" y="80" width="60" height="60" fill="#66D49F"/>
<rect x="50" y="20" width="60" height="30" transform="rotate(90 50 20)" fill="#60EFB8"/>
<rect x="140" y="20" width="60" height="30" transform="rotate(90 140 20)" fill="#60EFB8"/>
<path d="M210 20H240C256.569 20 270 33.4315 270 50C270 66.5685 256.569 80 240 80H210V20Z" fill="#60EFB8"/>
<path d="M410 20H440C456.569 20 470 33.4315 470 50C470 66.5685 456.569 80 440 80H410V20Z" fill="#60EFB8"/>
<rect x="480" y="80" width="60" height="60" fill="#66D49F"/>
<path d="M540 80H570C586.569 80 600 93.4315 600 110C600 126.569 586.569 140 570 140H540V80Z" fill="#60EFB8"/>
<rect x="540" y="20" width="60" height="60" fill="#66D49F"/>
<rect x="610" y="20" width="60" height="60" fill="#66D49F"/>
<rect x="610" y="80" width="60" height="60" fill="#66D49F"/>
<path d="M540 20H510C493.431 20 480 33.4315 480 50C480 66.5685 493.431 80 510 80H540V20Z" fill="#60EFB8"/>
<path d="M210 80L270 140H210V80Z" fill="#60EFB8"/>
<rect x="670" y="20" width="60" height="30" fill="#60EFB8"/>
<rect x="670" y="110" width="60" height="30" fill="#60EFB8"/>
<rect x="670" y="65" width="60" height="30" fill="#60EFB8"/>
<rect x="740" y="20" width="60" height="60" fill="#66D49F"/>
<rect x="870" y="20" width="60" height="60" fill="#66D49F"/>
<rect x="870" y="80" width="60" height="60" fill="#66D49F"/>
<rect x="740" y="80" width="60" height="60" fill="#66D49F"/>
<rect x="800" y="20" width="60" height="30" fill="#60EFB8"/>
<rect x="800" y="110" width="60" height="30" fill="#60EFB8"/>
<rect x="800" y="65" width="60" height="30" fill="#60EFB8"/>
<path d="M930 20C963.137 20 990 46.8629 990 80H930V20Z" fill="#60EFB8"/>
<path d="M930 140C963.137 140 990 113.137 990 80H930V140Z" fill="#60EFB8"/>
<rect x="50" y="45" width="189" height="10" fill="#60EFB8" fill-opacity="0.5"/>
<rect x="247.071" y="45" width="97.5303" height="10" transform="rotate(45 247.071 45)" fill="#60EFB8" fill-opacity="0.5"/>
<rect x="640" y="130" width="288" height="10" fill="#60EFB8" fill-opacity="0.5"/>
<rect x="469" y="45" width="21" height="10" fill="#60EFB8"/>
<rect x="598" y="105" width="21" height="10" fill="#60EFB8"/>
<rect x="532.071" y="64" width="31.0623" height="10" transform="rotate(45 532.071 64)" fill="#60EFB8"/>
<rect x="307" y="104.832" width="141.574" height="10" transform="rotate(-25 307 104.832)" fill="#60EFB8" fill-opacity="0.5"/>
<circle cx="50" cy="50" r="30" fill="#9AE1FF"/>
<path d="M49.52 46L48 62H52L50.48 46H49.52Z" fill="#CEFC86"/>
<path d="M51 44.5H35C35.917 47.6629 39.1511 50 43 50C46.8489 50 50.083 47.6629 51 44.5Z" fill="#CEFC86"/>
<path d="M51 44.5H35C35.917 41.3371 39.1511 39 43 39C46.8489 39 50.083 41.3371 51 44.5Z" fill="#CEFC86"/>
<path d="M65 44.5H49C49.917 47.6629 53.1511 50 57 50C60.8489 50 64.083 47.6629 65 44.5Z" fill="#CEFC86"/>
<path d="M65 44.5H49C49.917 41.3371 53.1511 39 57 39C60.8489 39 64.083 41.3371 65 44.5Z" fill="#CEFC86"/>
<path d="M69 60C65.3072 65.978 58.4052 70 50.5 70C42.5948 70 35.6928 65.978 32 60H69Z" fill="#FCFFB2"/>
<path fill-rule="evenodd" clip-rule="evenodd" d="M50 80C66.5685 80 80 66.5685 80 50C80 33.4315 66.5685 20 50 20C33.4315 20 20 33.4315 20 50C20 66.5685 33.4315 80 50 80ZM50 70C61.0457 70 70 61.0457 70 50C70 38.9543 61.0457 30 50 30C38.9543 30 30 38.9543 30 50C30 61.0457 38.9543 70 50 70Z" fill="#66D49F"/>
<circle cx="50" cy="50" r="28" stroke="#60EFB8" stroke-width="4"/>
<circle cx="930" cy="110" r="30" fill="#9AE1FF"/>
<path d="M929.52 106L928 122H932L930.48 106H929.52Z" fill="#CEFC86"/>
<path d="M931 104.5H915C915.917 107.663 919.151 110 923 110C926.849 110 930.083 107.663 931 104.5Z" fill="#CEFC86"/>
<path d="M931 104.5H915C915.917 101.337 919.151 99 923 99C926.849 99 930.083 101.337 931 104.5Z" fill="#CEFC86"/>
<path d="M945 104.5H929C929.917 107.663 933.151 110 937 110C940.849 110 944.083 107.663 945 104.5Z" fill="#CEFC86"/>
<path d="M945 104.5H929C929.917 101.337 933.151 99 937 99C940.849 99 944.083 101.337 945 104.5Z" fill="#CEFC86"/>
<path d="M949 120C945.307 125.978 938.405 130 930.5 130C922.595 130 915.693 125.978 912 120H949Z" fill="#FCFFB2"/>
<path fill-rule="evenodd" clip-rule="evenodd" d="M930 140C946.569 140 960 126.569 960 110C960 93.4315 946.569 80 930 80C913.431 80 900 93.4315 900 110C900 126.569 913.431 140 930 140ZM930 130C941.046 130 950 121.046 950 110C950 98.9543 941.046 90 930 90C918.954 90 910 98.9543 910 110C910 121.046 918.954 130 930 130Z" fill="#66D49F"/>
<circle cx="930" cy="110" r="28" stroke="#60EFB8" stroke-width="4"/>
<circle cx="310" cy="110" r="30" fill="#96CCFF"/>
<path d="M309.52 106L308 122H312L310.48 106H309.52Z" fill="#CEFC86"/>
<path d="M311 104.5H295C295.917 107.663 299.151 110 303 110C306.849 110 310.083 107.663 311 104.5Z" fill="#CEFC86"/>
<path d="M311 104.5H295C295.917 101.337 299.151 99 303 99C306.849 99 310.083 101.337 311 104.5Z" fill="#CEFC86"/>
<path d="M325 104.5H309C309.917 107.663 313.151 110 317 110C320.849 110 324.083 107.663 325 104.5Z" fill="#CEFC86"/>
<path d="M325 104.5H309C309.917 101.337 313.151 99 317 99C320.849 99 324.083 101.337 325 104.5Z" fill="#CEFC86"/>
<path d="M329 120C325.307 125.978 318.405 130 310.5 130C302.595 130 295.693 125.978 292 120H329Z" fill="#FCFFB2"/>
<path fill-rule="evenodd" clip-rule="evenodd" d="M310 140C326.569 140 340 126.569 340 110C340 93.4315 326.569 80 310 80C293.431 80 280 93.4315 280 110C280 126.569 293.431 140 310 140ZM310 130C321.046 130 330 121.046 330 110C330 98.9543 321.046 90 310 90C298.954 90 290 98.9543 290 110C290 121.046 298.954 130 310 130Z" fill="#60EFB8"/>
<circle cx="310" cy="110" r="28" stroke="#66D49F" stroke-width="4"/>
<circle cx="640" cy="109" r="30" fill="#96CCFF"/>
<path d="M639.52 105L638 121H642L640.48 105H639.52Z" fill="#CEFC86"/>
<path d="M641 103.5H625C625.917 106.663 629.151 109 633 109C636.849 109 640.083 106.663 641 103.5Z" fill="#CEFC86"/>
<path d="M641 103.5H625C625.917 100.337 629.151 98 633 98C636.849 98 640.083 100.337 641 103.5Z" fill="#CEFC86"/>
<path d="M655 103.5H639C639.917 106.663 643.151 109 647 109C650.849 109 654.083 106.663 655 103.5Z" fill="#CEFC86"/>
<path d="M655 103.5H639C639.917 100.337 643.151 98 647 98C650.849 98 654.083 100.337 655 103.5Z" fill="#CEFC86"/>
<path d="M659 119C655.307 124.978 648.405 129 640.5 129C632.595 129 625.693 124.978 622 119H659Z" fill="#FCFFB2"/>
<path fill-rule="evenodd" clip-rule="evenodd" d="M640 139C656.569 139 670 125.569 670 109C670 92.4315 656.569 79 640 79C623.431 79 610 92.4315 610 109C610 125.569 623.431 139 640 139ZM640 129C651.046 129 660 120.046 660 109C660 97.9543 651.046 89 640 89C628.954 89 620 97.9543 620 109C620 120.046 628.954 129 640 129Z" fill="#60EFB8"/>
<circle cx="640" cy="109" r="28" stroke="#66D49F" stroke-width="4"/>
</svg>
